<mxfile host="app.diagrams.net" modified="2023-05-12T09:28:02.082Z" agent="Mozilla/5.0 (Windows NT 10.0; Win64; x64) AppleWebKit/537.36 (KHTML, like Gecko) Chrome/113.0.0.0 Safari/537.36 Edg/113.0.1774.35" etag="628w0461gIGV3rDIAPkM" version="21.2.9" type="github">
  <diagram name="第 1 页" id="e-lQawShEirIrgViacKF">
    <mxGraphModel dx="1683" dy="963" grid="1" gridSize="10" guides="1" tooltips="1" connect="1" arrows="1" fold="1" page="1" pageScale="1" pageWidth="827" pageHeight="1169" math="0" shadow="0">
      <root>
        <mxCell id="0" />
        <mxCell id="1" parent="0" />
        <mxCell id="YzruUkDzQWSCz7ta_xwU-1" value="" style="rounded=1;whiteSpace=wrap;html=1;strokeColor=#D4E1F5;fillColor=#E6E6E6;" vertex="1" parent="1">
          <mxGeometry x="110" y="465" width="172" height="250" as="geometry" />
        </mxCell>
        <mxCell id="YzruUkDzQWSCz7ta_xwU-4" value="&lt;font style=&quot;font-size: 18px;&quot;&gt;任務1&lt;/font&gt;" style="text;html=1;strokeColor=none;fillColor=none;align=center;verticalAlign=middle;whiteSpace=wrap;rounded=0;" vertex="1" parent="1">
          <mxGeometry x="166" y="685" width="60" height="30" as="geometry" />
        </mxCell>
        <mxCell id="YzruUkDzQWSCz7ta_xwU-7" value="&lt;span style=&quot;font-size: 18px;&quot;&gt;基於混合NVM&lt;br&gt;存儲體系結構&lt;br&gt;&lt;/span&gt;" style="rounded=0;whiteSpace=wrap;html=1;fillColor=#D4E1F5;strokeColor=none;" vertex="1" parent="1">
          <mxGeometry x="120" y="485" width="152" height="60" as="geometry" />
        </mxCell>
        <mxCell id="YzruUkDzQWSCz7ta_xwU-32" value="&lt;font style=&quot;font-size: 18px;&quot;&gt;&lt;b&gt;研究内容&lt;/b&gt;&lt;/font&gt;" style="text;html=1;strokeColor=none;fillColor=none;align=center;verticalAlign=middle;whiteSpace=wrap;rounded=0;" vertex="1" parent="1">
          <mxGeometry x="80" y="580" width="22" height="30" as="geometry" />
        </mxCell>
        <mxCell id="YzruUkDzQWSCz7ta_xwU-36" value="&lt;font style=&quot;font-size: 18px;&quot;&gt;基於訪問特徵&lt;br style=&quot;border-color: var(--border-color);&quot;&gt;的元數據管理&lt;/font&gt;" style="rounded=0;whiteSpace=wrap;html=1;fillColor=#D4E1F5;strokeColor=none;" vertex="1" parent="1">
          <mxGeometry x="120" y="555" width="152" height="60" as="geometry" />
        </mxCell>
        <mxCell id="YzruUkDzQWSCz7ta_xwU-37" value="&lt;font style=&quot;font-size: 18px;&quot;&gt;基於混合内存的持久化鍵值存儲體系&lt;/font&gt;" style="rounded=0;whiteSpace=wrap;html=1;fillColor=#D4E1F5;strokeColor=none;" vertex="1" parent="1">
          <mxGeometry x="120" y="625" width="152" height="60" as="geometry" />
        </mxCell>
        <mxCell id="YzruUkDzQWSCz7ta_xwU-38" value="" style="rounded=1;whiteSpace=wrap;html=1;strokeColor=#D4E1F5;fillColor=#E6E6E6;" vertex="1" parent="1">
          <mxGeometry x="300" y="465" width="172" height="250" as="geometry" />
        </mxCell>
        <mxCell id="YzruUkDzQWSCz7ta_xwU-39" value="&lt;font style=&quot;font-size: 18px;&quot;&gt;任務2&lt;/font&gt;" style="text;html=1;strokeColor=none;fillColor=none;align=center;verticalAlign=middle;whiteSpace=wrap;rounded=0;" vertex="1" parent="1">
          <mxGeometry x="356" y="685" width="60" height="30" as="geometry" />
        </mxCell>
        <mxCell id="YzruUkDzQWSCz7ta_xwU-40" value="&lt;font style=&quot;font-size: 18px;&quot;&gt;動態NVM資源池&lt;br style=&quot;border-color: var(--border-color);&quot;&gt;内存管理機制&lt;/font&gt;&lt;span style=&quot;font-size: 18px;&quot;&gt;&lt;br&gt;&lt;/span&gt;" style="rounded=0;whiteSpace=wrap;html=1;fillColor=#D4E1F5;strokeColor=none;" vertex="1" parent="1">
          <mxGeometry x="310" y="485" width="152" height="60" as="geometry" />
        </mxCell>
        <mxCell id="YzruUkDzQWSCz7ta_xwU-41" value="&lt;font style=&quot;font-size: 18px;&quot;&gt;基於資源需求的&lt;br style=&quot;border-color: var(--border-color);&quot;&gt;多層級資源管理&lt;/font&gt;" style="rounded=0;whiteSpace=wrap;html=1;fillColor=#D4E1F5;strokeColor=none;" vertex="1" parent="1">
          <mxGeometry x="310" y="555" width="152" height="60" as="geometry" />
        </mxCell>
        <mxCell id="YzruUkDzQWSCz7ta_xwU-42" value="&lt;font style=&quot;font-size: 18px;&quot;&gt;基於異構内存的&lt;br style=&quot;border-color: var(--border-color);&quot;&gt;數據管理策略&lt;/font&gt;" style="rounded=0;whiteSpace=wrap;html=1;fillColor=#D4E1F5;strokeColor=none;" vertex="1" parent="1">
          <mxGeometry x="310" y="625" width="152" height="60" as="geometry" />
        </mxCell>
        <mxCell id="YzruUkDzQWSCz7ta_xwU-43" value="" style="rounded=1;whiteSpace=wrap;html=1;strokeColor=#D4E1F5;fillColor=#E6E6E6;" vertex="1" parent="1">
          <mxGeometry x="490" y="465" width="172" height="250" as="geometry" />
        </mxCell>
        <mxCell id="YzruUkDzQWSCz7ta_xwU-44" value="&lt;font style=&quot;font-size: 18px;&quot;&gt;任務3&lt;/font&gt;" style="text;html=1;strokeColor=none;fillColor=none;align=center;verticalAlign=middle;whiteSpace=wrap;rounded=0;" vertex="1" parent="1">
          <mxGeometry x="546" y="685" width="60" height="30" as="geometry" />
        </mxCell>
        <mxCell id="YzruUkDzQWSCz7ta_xwU-45" value="&lt;font style=&quot;font-size: 18px;&quot;&gt;基於拓撲感知&lt;br style=&quot;border-color: var(--border-color);&quot;&gt;任務調度策略&lt;/font&gt;&lt;span style=&quot;font-size: 18px;&quot;&gt;&lt;br&gt;&lt;/span&gt;" style="rounded=0;whiteSpace=wrap;html=1;fillColor=#D4E1F5;strokeColor=none;" vertex="1" parent="1">
          <mxGeometry x="500" y="485" width="152" height="60" as="geometry" />
        </mxCell>
        <mxCell id="YzruUkDzQWSCz7ta_xwU-46" value="&lt;font style=&quot;font-size: 18px;&quot;&gt;複雜網絡下的數&lt;br style=&quot;border-color: var(--border-color);&quot;&gt;据交換優化機制&lt;/font&gt;" style="rounded=0;whiteSpace=wrap;html=1;fillColor=#D4E1F5;strokeColor=none;" vertex="1" parent="1">
          <mxGeometry x="500" y="555" width="152" height="60" as="geometry" />
        </mxCell>
        <mxCell id="YzruUkDzQWSCz7ta_xwU-47" value="&lt;font style=&quot;font-size: 18px;&quot;&gt;去中心化的數據&lt;br style=&quot;border-color: var(--border-color);&quot;&gt;異步互通機制&lt;/font&gt;" style="rounded=0;whiteSpace=wrap;html=1;fillColor=#D4E1F5;strokeColor=none;" vertex="1" parent="1">
          <mxGeometry x="500" y="625" width="152" height="60" as="geometry" />
        </mxCell>
        <mxCell id="YzruUkDzQWSCz7ta_xwU-48" value="" style="rounded=1;whiteSpace=wrap;html=1;strokeColor=#D4E1F5;fillColor=#E6E6E6;" vertex="1" parent="1">
          <mxGeometry x="740" y="465" width="172" height="250" as="geometry" />
        </mxCell>
        <mxCell id="YzruUkDzQWSCz7ta_xwU-49" value="&lt;font style=&quot;font-size: 18px;&quot;&gt;任務4&lt;/font&gt;" style="text;html=1;strokeColor=none;fillColor=none;align=center;verticalAlign=middle;whiteSpace=wrap;rounded=0;" vertex="1" parent="1">
          <mxGeometry x="796" y="685" width="60" height="30" as="geometry" />
        </mxCell>
        <mxCell id="YzruUkDzQWSCz7ta_xwU-50" value="&lt;font style=&quot;font-size: 18px;&quot;&gt;小米大數據分析&lt;br style=&quot;border-color: var(--border-color);&quot;&gt;平臺示範應用&lt;/font&gt;&lt;span style=&quot;font-size: 18px;&quot;&gt;&lt;br&gt;&lt;/span&gt;" style="rounded=0;whiteSpace=wrap;html=1;fillColor=#D4E1F5;strokeColor=none;" vertex="1" parent="1">
          <mxGeometry x="750" y="510" width="152" height="60" as="geometry" />
        </mxCell>
        <mxCell id="YzruUkDzQWSCz7ta_xwU-52" value="&lt;font style=&quot;font-size: 18px;&quot;&gt;普强語音人工智&lt;br style=&quot;border-color: var(--border-color);&quot;&gt;能平臺示範應用&lt;/font&gt;" style="rounded=0;whiteSpace=wrap;html=1;fillColor=#D4E1F5;strokeColor=none;" vertex="1" parent="1">
          <mxGeometry x="750" y="600" width="152" height="60" as="geometry" />
        </mxCell>
        <mxCell id="YzruUkDzQWSCz7ta_xwU-53" value="" style="endArrow=none;dashed=1;html=1;dashPattern=1 3;strokeWidth=2;rounded=0;" edge="1" parent="1">
          <mxGeometry width="50" height="50" relative="1" as="geometry">
            <mxPoint x="690" y="720" as="sourcePoint" />
            <mxPoint x="690" y="450" as="targetPoint" />
          </mxGeometry>
        </mxCell>
        <mxCell id="YzruUkDzQWSCz7ta_xwU-54" value="&lt;font style=&quot;font-size: 18px;&quot;&gt;&lt;b&gt;示範應用&lt;/b&gt;&lt;/font&gt;" style="text;html=1;strokeColor=none;fillColor=none;align=center;verticalAlign=middle;whiteSpace=wrap;rounded=0;" vertex="1" parent="1">
          <mxGeometry x="700" y="580" width="22" height="30" as="geometry" />
        </mxCell>
      </root>
    </mxGraphModel>
  </diagram>
</mxfile>
